<svg width="153" height="85" viewBox="0 0 153 85" fill="none" xmlns="http://www.w3.org/2000/svg">
<g id="Logo">
<g id="blur">
<g id="blur-blue" filter="url(#filter0_f)">
<circle cx="42.5" cy="42.5" r="12.5" fill="#35A7FF"/>
</g>
<g id="blur-yellow" filter="url(#filter1_f)">
<circle cx="76.5" cy="42.5" r="12.5" fill="#F7E96E"/>
</g>
<g id="blur-green" filter="url(#filter2_f)">
<circle cx="110.5" cy="42.5" r="12.5" fill="#00FF15"/>
</g>
</g>
<g id="text">
<path d="M33.424 28.816L38.896 29.168C39.92 26.8427 41.232 25.68 42.832 25.68C43.1307 25.68 43.3333 25.8187 43.44 26.096L43.472 26.224C42.1707 26.224 41.1467 27.1733 40.4 29.072C42.5547 28.7307 44.0693 27.8133 44.944 26.32C45.2853 25.7227 45.456 25.2427 45.456 24.88C45.456 24.0267 45.1573 23.6 44.56 23.6C44.688 23.2373 44.944 23.056 45.328 23.056C46.0533 23.056 46.416 23.5573 46.416 24.56C46.416 25.5413 46.0213 26.5013 45.232 27.44C44.08 28.8267 42.3733 29.6373 40.112 29.872C39.6427 31.408 39.2587 33.328 38.96 35.632C38.6613 37.936 38.4907 39.2267 38.448 39.504C39.2587 38.928 40.656 37.9787 42.64 36.656C44.624 35.3333 45.9147 34.4693 46.512 34.064C47.472 30.5867 48.7093 27.7067 50.224 25.424C51.76 23.1413 53.3707 22 55.056 22C55.632 22 56.08 22.1813 56.4 22.544C56.7413 22.9067 56.912 23.376 56.912 23.952C56.912 25.5093 56.1653 27.0987 54.672 28.72C53.1787 30.3413 51.0987 32.0907 48.432 33.968C47.472 37.8293 46.992 41.5627 46.992 45.168C46.992 48.368 47.4507 50.7573 48.368 52.336C49.0933 53.5733 50.0747 54.192 51.312 54.192C51.184 54.6187 50.8853 54.832 50.416 54.832C48.9867 54.832 47.8347 54.256 46.96 53.104C45.6373 51.3973 44.976 48.6453 44.976 44.848C44.976 41.904 45.36 38.8107 46.128 35.568C41.3067 38.768 38.6933 40.5067 38.288 40.784C37.648 45.072 36.8267 47.9947 35.824 49.552C34.864 51.0027 33.648 51.728 32.176 51.728C31.4933 51.728 30.9493 51.4933 30.544 51.024C30.1387 50.5547 29.936 49.9253 29.936 49.136C29.936 46.9813 31.9947 44.3467 36.112 41.232C37.0293 35.5787 37.8507 31.8133 38.576 29.936L33.808 29.584C31.2267 29.584 29.3813 30.5653 28.272 32.528C27.7387 33.5093 27.472 34.4907 27.472 35.472C27.472 35.984 27.536 36.4853 27.664 36.976C28.0693 38.4907 28.8693 39.248 30.064 39.248C30.064 39.4187 29.9787 39.5787 29.808 39.728C29.6587 39.8773 29.456 39.952 29.2 39.952C27.8347 39.952 26.8853 39.248 26.352 37.84C26.1173 37.2213 26 36.5173 26 35.728C26 34.9387 26.224 34.0427 26.672 33.04C27.5467 31.0347 29.0187 29.7333 31.088 29.136C31.8133 28.9227 32.592 28.816 33.424 28.816ZM56.08 23.92C56.08 23.1093 55.7387 22.704 55.056 22.704C53.9467 22.704 52.8373 23.6107 51.728 25.424C50.64 27.216 49.6907 29.5413 48.88 32.4C51.1627 30.736 52.9333 29.2213 54.192 27.856C55.4507 26.4693 56.08 25.1573 56.08 23.92ZM30.768 49.168C30.768 50.3413 31.216 50.928 32.112 50.928C33.0293 50.928 33.7653 50.2133 34.32 48.784C34.8747 47.3547 35.3973 45.264 35.888 42.512C32.4747 45.1573 30.768 47.376 30.768 49.168Z" fill="#1B2021"/>
<path d="M54.1471 49.232C52.4617 49.232 51.6191 47.9627 51.6191 45.424C51.6191 43.952 52.0031 42.3413 52.7711 40.592C53.8377 38.224 55.1924 36.6773 56.8351 35.952C57.4111 35.7173 57.9871 35.6 58.5631 35.6C59.1604 35.6 59.6297 35.7707 59.9711 36.112C60.3124 36.4533 60.4831 36.8373 60.4831 37.264C60.4831 37.456 60.3764 37.552 60.1631 37.552C59.9711 37.5307 59.8751 37.424 59.8751 37.232C59.8751 37.04 59.7684 36.8693 59.5551 36.72C59.3631 36.5493 59.0751 36.464 58.6911 36.464C57.3471 36.464 56.1311 37.6693 55.0431 40.08C54.0191 42.32 53.5071 44.4427 53.5071 46.448C53.5071 47.6853 53.7737 48.304 54.3071 48.304C54.8617 48.304 55.5231 47.8453 56.2911 46.928C57.0804 45.9893 57.8057 44.9013 58.4671 43.664C59.8964 41.0613 60.7391 39.3867 60.9951 38.64C61.2511 37.8933 61.5284 37.52 61.8271 37.52C62.3604 37.52 62.6271 37.968 62.6271 38.864C62.6271 39.1413 62.5951 39.4613 62.5311 39.824C61.8271 43.2373 61.4431 45.2107 61.3791 45.744C61.3364 46.2773 61.3151 46.6613 61.3151 46.896C61.3151 47.92 61.5604 48.432 62.0511 48.432C62.6057 48.432 63.3844 47.696 64.3871 46.224C65.3897 44.752 66.2537 43.28 66.9791 41.808L68.0671 39.6H68.9311C68.8031 39.856 68.6324 40.208 68.4191 40.656C68.2271 41.0827 67.8324 41.8613 67.2351 42.992C66.6377 44.1013 66.0617 45.0827 65.5071 45.936C64.9737 46.7893 64.3657 47.568 63.6831 48.272C63.0217 48.9547 62.4457 49.296 61.9551 49.296C60.3764 49.296 59.5871 48.144 59.5871 45.84C59.5871 45.072 59.6724 44.176 59.8431 43.152H59.6191C57.4431 47.2053 55.6191 49.232 54.1471 49.232Z" fill="#1B2021"/>
<path d="M67.5367 49.2C66.9394 49.2 66.6407 48.7413 66.6407 47.824C66.6407 47.3333 67.238 43.76 68.4327 37.104C68.4967 36.656 68.6887 36.432 69.0087 36.432C69.3927 36.432 69.6807 36.7093 69.8727 37.264C69.9794 37.5627 70.0327 37.8933 70.0327 38.256C70.0327 38.5973 69.99 38.9707 69.9047 39.376L69.4247 41.808H69.6167C71.494 37.584 73.3074 35.472 75.0567 35.472C75.654 35.472 76.1234 35.6853 76.4647 36.112C76.8274 36.5387 77.0087 37.0507 77.0087 37.648C77.0087 38.7573 76.838 40.144 76.4967 41.808H76.6247C78.438 37.8613 80.2194 35.888 81.9687 35.888C82.5447 35.888 83.014 36.1013 83.3767 36.528C83.7394 36.9547 83.9207 37.52 83.9207 38.224C83.9207 38.928 83.6434 40.4213 83.0887 42.704C82.5554 44.9867 82.2887 46.5973 82.2887 47.536C82.2887 48.9227 82.5447 49.616 83.0567 49.616C83.0567 49.7653 82.9607 49.9147 82.7687 50.064C82.5767 50.2133 82.3527 50.288 82.0967 50.288C80.8594 50.288 80.2407 49.3173 80.2407 47.376C80.2407 46.16 80.55 44.4107 81.1687 42.128C81.7874 39.824 82.0967 38.352 82.0967 37.712C82.0967 37.0507 81.8834 36.72 81.4567 36.72C80.6674 36.72 79.7394 37.68 78.6727 39.6C77.6274 41.4987 76.7847 43.3227 76.1447 45.072C75.526 46.8213 75.1634 47.952 75.0567 48.464C74.95 48.9547 74.758 49.2 74.4807 49.2C73.8834 49.2 73.5847 48.7413 73.5847 47.824C73.5847 47.4827 73.766 46.2773 74.1287 44.208C74.8327 40.4107 75.1847 38.1493 75.1847 37.424C75.1847 36.6773 74.9714 36.304 74.5447 36.304C73.9687 36.304 73.2967 36.9013 72.5287 38.096C71.7607 39.2693 71.0674 40.6347 70.4487 42.192C69.1047 45.4773 68.3154 47.6 68.0807 48.56C67.9954 48.9867 67.814 49.2 67.5367 49.2Z" fill="#1B2021"/>
<path d="M88.7033 47.632C88.2766 47.632 87.8713 47.8987 87.4873 48.432C87.0819 48.944 86.7192 49.2 86.3993 49.2C86.0793 49.2 85.9193 49.1253 85.9193 48.976C85.9193 48.912 85.9406 48.8587 85.9832 48.816C88.8633 45.1893 91.7859 41.808 94.7513 38.672C94.1113 38.8427 93.4713 38.928 92.8313 38.928C90.9753 38.928 89.8126 38.384 89.3433 37.296C89.2366 37.0187 89.1833 36.72 89.1833 36.4C89.1833 36.0587 89.3326 35.7173 89.6312 35.376C89.9512 35.0133 90.3032 34.832 90.6872 34.832C91.0713 34.832 91.3486 34.9067 91.5192 35.056C91.7113 35.184 91.8392 35.3867 91.9033 35.664C91.5833 35.664 91.3806 35.8453 91.2952 36.208C91.2739 36.3147 91.2633 36.4107 91.2633 36.496C91.2633 36.9227 91.5619 37.2533 92.1592 37.488C92.5433 37.6373 93.1086 37.712 93.8552 37.712C94.6232 37.712 95.3699 37.5733 96.0953 37.296C97.2686 36.1653 98.0259 35.6 98.3672 35.6C98.5379 35.6 98.6233 35.664 98.6233 35.792C98.6233 35.92 98.4632 36.208 98.1432 36.656C97.8232 37.104 97.2153 37.5733 96.3193 38.064C94.7406 39.8133 92.2446 42.7147 88.8312 46.768C88.9166 46.7467 89.0872 46.736 89.3433 46.736C89.6206 46.736 90.1859 46.9387 91.0393 47.344C91.9139 47.7493 92.6926 47.952 93.3753 47.952C94.6126 47.952 95.4446 47.4507 95.8712 46.448C95.9992 46.128 96.0632 45.8293 96.0632 45.552C96.0632 45.2533 95.9886 45.008 95.8392 44.816C95.6899 44.624 95.5086 44.528 95.2952 44.528C95.3379 44.2507 95.4979 44.112 95.7753 44.112C96.5646 44.112 96.9593 44.7307 96.9593 45.968C96.9593 46.864 96.6179 47.7493 95.9352 48.624C95.2526 49.4987 94.2926 49.936 93.0553 49.936C92.4579 49.936 91.9246 49.808 91.4553 49.552C90.9859 49.3173 90.6339 49.0613 90.3992 48.784C89.7166 48.016 89.1512 47.632 88.7033 47.632Z" fill="#1B2021"/>
<path d="M101.725 49.232C100.04 49.232 99.1972 47.9627 99.1972 45.424C99.1972 43.952 99.5812 42.3413 100.349 40.592C101.416 38.224 102.771 36.6773 104.413 35.952C104.989 35.7173 105.565 35.6 106.141 35.6C106.739 35.6 107.208 35.7707 107.549 36.112C107.891 36.4533 108.061 36.8373 108.061 37.264C108.061 37.456 107.955 37.552 107.741 37.552C107.549 37.5307 107.453 37.424 107.453 37.232C107.453 37.04 107.347 36.8693 107.133 36.72C106.941 36.5493 106.653 36.464 106.269 36.464C104.925 36.464 103.709 37.6693 102.621 40.08C101.597 42.32 101.085 44.4427 101.085 46.448C101.085 47.6853 101.352 48.304 101.885 48.304C102.44 48.304 103.101 47.8453 103.869 46.928C104.659 45.9893 105.384 44.9013 106.045 43.664C107.475 41.0613 108.317 39.3867 108.573 38.64C108.829 37.8933 109.107 37.52 109.405 37.52C109.939 37.52 110.205 37.968 110.205 38.864C110.205 39.1413 110.173 39.4613 110.109 39.824C109.405 43.2373 109.021 45.2107 108.957 45.744C108.915 46.2773 108.893 46.6613 108.893 46.896C108.893 47.92 109.139 48.432 109.629 48.432C110.184 48.432 110.963 47.696 111.965 46.224C112.968 44.752 113.832 43.28 114.557 41.808L115.645 39.6H116.509C116.381 39.856 116.211 40.208 115.997 40.656C115.805 41.0827 115.411 41.8613 114.813 42.992C114.216 44.1013 113.64 45.0827 113.085 45.936C112.552 46.7893 111.944 47.568 111.261 48.272C110.6 48.9547 110.024 49.296 109.533 49.296C107.955 49.296 107.165 48.144 107.165 45.84C107.165 45.072 107.251 44.176 107.421 43.152H107.197C105.021 47.2053 103.197 49.232 101.725 49.232Z" fill="#1B2021"/>
</g>
</g>
<defs>
<filter id="filter0_f" x="0" y="0" width="85" height="85" filterUnits="userSpaceOnUse" color-interpolation-filters="sRGB">
<feFlood flood-opacity="0" result="BackgroundImageFix"/>
<feBlend mode="normal" in="SourceGraphic" in2="BackgroundImageFix" result="shape"/>
<feGaussianBlur stdDeviation="15" result="effect1_foregroundBlur"/>
</filter>
<filter id="filter1_f" x="34" y="0" width="85" height="85" filterUnits="userSpaceOnUse" color-interpolation-filters="sRGB">
<feFlood flood-opacity="0" result="BackgroundImageFix"/>
<feBlend mode="normal" in="SourceGraphic" in2="BackgroundImageFix" result="shape"/>
<feGaussianBlur stdDeviation="15" result="effect1_foregroundBlur"/>
</filter>
<filter id="filter2_f" x="68" y="0" width="85" height="85" filterUnits="userSpaceOnUse" color-interpolation-filters="sRGB">
<feFlood flood-opacity="0" result="BackgroundImageFix"/>
<feBlend mode="normal" in="SourceGraphic" in2="BackgroundImageFix" result="shape"/>
<feGaussianBlur stdDeviation="15" result="effect1_foregroundBlur"/>
</filter>
</defs>
</svg>
